<svg width="314" height="439" viewBox="0 0 314 439" fill="none" xmlns="http://www.w3.org/2000/svg">
<path d="M274.13 0.656796H86.6304C85.6058 0.644305 84.5899 0.846381 83.6481 1.25003C82.7062 1.65368 81.8593 2.24997 81.1617 3.00055L3.03668 81.1255C2.2861 81.8231 1.68981 82.6701 1.28616 83.6119C0.88251 84.5538 0.680438 85.5697 0.692929 86.5943V399.094C0.692929 409.454 4.80843 419.39 12.1341 426.716C19.4597 434.041 29.3954 438.157 39.7554 438.157H274.13C284.49 438.157 294.426 434.041 301.752 426.716C309.077 419.39 313.193 409.454 313.193 399.094V39.7193C313.193 29.3593 309.077 19.4236 301.752 12.0979C294.426 4.7723 284.49 0.656796 274.13 0.656796Z" fill="#4A7AAE"/>
<path d="M141.317 0.65625H250.692C254.836 0.65625 258.811 2.30245 261.741 5.23271C264.671 8.16296 266.317 12.1372 266.317 16.2812C266.317 20.4253 264.671 24.3995 261.741 27.3298C258.811 30.26 254.836 31.9062 250.692 31.9062H141.317C137.173 31.9062 133.199 30.26 130.269 27.3298C127.339 24.3995 125.692 20.4253 125.692 16.2812C125.692 12.1372 127.339 8.16296 130.269 5.23271C133.199 2.30245 137.173 0.65625 141.317 0.65625Z" fill="#699BC9"/>
<path d="M0.692383 180.344V149.094C0.692383 144.95 2.33859 140.975 5.26884 138.045C8.1991 135.115 12.1734 133.469 16.3174 133.469C20.4614 133.469 24.4357 135.115 27.3659 138.045C30.2962 140.975 31.9424 144.95 31.9424 149.094V180.344C31.9424 184.488 30.2962 188.462 27.3659 191.392C24.4357 194.323 20.4614 195.969 16.3174 195.969C12.1734 195.969 8.1991 194.323 5.26884 191.392C2.33859 188.462 0.692383 184.488 0.692383 180.344Z" fill="#699BC9"/>
<path d="M0.692383 352.219V227.219C0.692383 223.075 2.33859 219.1 5.26884 216.17C8.1991 213.24 12.1734 211.594 16.3174 211.594C20.4614 211.594 24.4357 213.24 27.3659 216.17C30.2962 219.1 31.9424 223.075 31.9424 227.219V352.219C31.9424 356.363 30.2962 360.337 27.3659 363.267C24.4357 366.198 20.4614 367.844 16.3174 367.844C12.1734 367.844 8.1991 366.198 5.26884 363.267C2.33859 360.337 0.692383 356.363 0.692383 352.219Z" fill="#699BC9"/>
<path d="M281.942 281.906V344.406C281.942 360.982 275.358 376.879 263.637 388.6C251.916 400.321 236.018 406.906 219.442 406.906H78.8174C74.6734 406.906 70.6991 408.552 67.7688 411.483C64.8386 414.413 63.1924 418.387 63.1924 422.531C63.1924 426.675 64.8386 430.65 67.7688 433.58C70.6991 436.51 74.6734 438.156 78.8174 438.156H274.13C284.49 438.156 294.426 434.041 301.751 426.715C309.077 419.389 313.192 409.454 313.192 399.094V281.906C313.192 277.762 311.546 273.788 308.616 270.858C305.686 267.927 301.711 266.281 297.567 266.281C293.423 266.281 289.449 267.927 286.519 270.858C283.589 273.788 281.942 277.762 281.942 281.906Z" fill="#427099"/>
<path d="M89.5993 0.654791C88.191 0.0166 86.6172 -0.160829 85.1022 0.147787C83.5872 0.456403 82.2082 1.23532 81.1618 2.37354L3.03681 80.4985C1.65292 81.5006 0.661728 82.9538 0.233928 84.608C-0.193873 86.2621 -0.0315092 88.0137 0.693062 89.561C1.31613 91.0906 2.40789 92.3832 3.81154 93.2535C5.21519 94.1238 6.85853 94.5268 8.50556 94.4048H55.3806C60.5103 94.4048 65.5899 93.3944 70.3291 91.4313C75.0684 89.4683 79.3746 86.5909 83.0019 82.9637C86.6292 79.3364 89.5065 75.0301 91.4696 70.2909C93.4327 65.5516 94.443 60.472 94.443 55.3423V8.46729C94.5651 6.82026 94.162 5.17692 93.2918 3.77327C92.4215 2.36962 91.1288 1.27786 89.5993 0.654791Z" fill="#427099"/>
<path d="M274.131 0.6553H86.6306C85.6547 0.422843 84.6378 0.422843 83.6619 0.6553C82.6869 0.988434 81.8221 1.58298 81.1619 2.37405L3.03689 80.4991C1.90742 81.2273 1.076 82.3359 0.693141 83.624C0.460685 84.6 0.460685 85.6169 0.693141 86.5928V399.093C0.693141 409.453 4.80864 419.389 12.1343 426.714C19.4599 434.04 29.3956 438.155 39.7556 438.155H274.131C284.491 438.155 294.426 434.04 301.752 426.714C309.078 419.389 313.193 409.453 313.193 399.093V39.7178C313.193 29.3578 309.078 19.4221 301.752 12.0964C294.426 4.7708 284.491 0.6553 274.131 0.6553ZM78.8181 27.3741V55.3428C78.8181 61.5588 76.3488 67.5202 71.9535 71.9156C67.5581 76.311 61.5966 78.7803 55.3806 78.7803H27.4119L78.8181 27.3741ZM297.568 399.093C297.568 405.309 295.099 411.27 290.703 415.666C286.308 420.061 280.347 422.53 274.131 422.53H39.7556C33.5396 422.53 27.5782 420.061 23.1828 415.666C18.7874 411.27 16.3181 405.309 16.3181 399.093V94.4053H55.3806C60.5104 94.4053 65.5899 93.3949 70.3292 91.4318C75.0685 89.4688 79.3747 86.5914 83.002 82.9642C86.6293 79.3369 89.5066 75.0306 91.4697 70.2914C93.4328 65.5521 94.4431 60.4726 94.4431 55.3428V16.2803H274.131C280.347 16.2803 286.308 18.7496 290.703 23.145C295.099 27.5404 297.568 33.5018 297.568 39.7178V399.093Z" fill="#3D405B"/>
<path d="M77.2578 224.547L117.336 238.68V258.367L56.7969 232.703V216.109L117.336 190.445V210.133L77.2578 224.547ZM140.469 276.789H125.352L163.039 165.625H178.156L140.469 276.789ZM229.414 224.336L188.562 210.062V190.516L249.805 216.18V232.703L188.562 258.438V238.82L229.414 224.336Z" fill="white"/>
</svg>
