<svg width="314" height="439" viewBox="0 0 314 439" fill="none" xmlns="http://www.w3.org/2000/svg">
<path d="M274.132 0.656796H86.6321C85.6075 0.644305 84.5916 0.846381 83.6498 1.25003C82.7079 1.65368 81.861 2.24997 81.1634 3.00055L3.03839 81.1255C2.28781 81.8231 1.69152 82.6701 1.28787 83.6119C0.884219 84.5538 0.682147 85.5697 0.694637 86.5943V399.094C0.694637 409.454 4.81014 419.39 12.1358 426.716C19.4614 434.041 29.3971 438.157 39.7571 438.157H274.132C284.492 438.157 294.428 434.041 301.754 426.716C309.079 419.39 313.195 409.454 313.195 399.094V39.7193C313.195 29.3593 309.079 19.4236 301.754 12.0979C294.428 4.7723 284.492 0.656796 274.132 0.656796Z" fill="#78D2C4"/>
<path d="M141.319 0.65625H250.694C254.838 0.65625 258.812 2.30245 261.743 5.23271C264.673 8.16296 266.319 12.1372 266.319 16.2812C266.319 20.4253 264.673 24.3995 261.743 27.3298C258.812 30.26 254.838 31.9062 250.694 31.9062H141.319C137.175 31.9062 133.201 30.26 130.271 27.3298C127.34 24.3995 125.694 20.4253 125.694 16.2812C125.694 12.1372 127.34 8.16296 130.271 5.23271C133.201 2.30245 137.175 0.65625 141.319 0.65625Z" fill="#9EEFDF"/>
<path d="M0.694092 180.344V149.094C0.694092 144.95 2.3403 140.975 5.27055 138.045C8.20081 135.115 12.1751 133.469 16.3191 133.469C20.4631 133.469 24.4374 135.115 27.3676 138.045C30.2979 140.975 31.9441 144.95 31.9441 149.094V180.344C31.9441 184.488 30.2979 188.462 27.3676 191.392C24.4374 194.323 20.4631 195.969 16.3191 195.969C12.1751 195.969 8.20081 194.323 5.27055 191.392C2.3403 188.462 0.694092 184.488 0.694092 180.344Z" fill="#9EEFDF"/>
<path d="M0.694092 352.219V227.219C0.694092 223.075 2.3403 219.1 5.27055 216.17C8.20081 213.24 12.1751 211.594 16.3191 211.594C20.4631 211.594 24.4374 213.24 27.3676 216.17C30.2979 219.1 31.9441 223.075 31.9441 227.219V352.219C31.9441 356.363 30.2979 360.337 27.3676 363.267C24.4374 366.198 20.4631 367.844 16.3191 367.844C12.1751 367.844 8.20081 366.198 5.27055 363.267C2.3403 360.337 0.694092 356.363 0.694092 352.219Z" fill="#9EEFDF"/>
<path d="M281.944 281.906V344.406C281.944 360.982 275.359 376.879 263.638 388.6C251.917 400.321 236.02 406.906 219.444 406.906H78.8191C74.6751 406.906 70.7008 408.552 67.7706 411.483C64.8403 414.413 63.1941 418.387 63.1941 422.531C63.1941 426.675 64.8403 430.65 67.7706 433.58C70.7008 436.51 74.6751 438.156 78.8191 438.156H274.132C284.492 438.156 294.427 434.041 301.753 426.715C309.079 419.389 313.194 409.454 313.194 399.094V281.906C313.194 277.762 311.548 273.788 308.618 270.858C305.687 267.927 301.713 266.281 297.569 266.281C293.425 266.281 289.451 267.927 286.521 270.858C283.59 273.788 281.944 277.762 281.944 281.906Z" fill="#52CEB7"/>
<path d="M89.5993 0.654791C88.191 0.0166 86.6172 -0.160829 85.1022 0.147787C83.5872 0.456403 82.2082 1.23532 81.1618 2.37354L3.03681 80.4985C1.65292 81.5006 0.661728 82.9538 0.233928 84.608C-0.193873 86.2621 -0.0315092 88.0137 0.693062 89.561C1.31613 91.0906 2.40789 92.3832 3.81154 93.2535C5.21519 94.1238 6.85853 94.5268 8.50556 94.4048H55.3806C60.5103 94.4048 65.5899 93.3944 70.3291 91.4313C75.0684 89.4683 79.3746 86.5909 83.0019 82.9637C86.6292 79.3364 89.5065 75.0301 91.4696 70.2909C93.4327 65.5516 94.443 60.472 94.443 55.3423V8.46729C94.5651 6.82026 94.162 5.17692 93.2918 3.77327C92.4215 2.36962 91.1288 1.27786 89.5993 0.654791Z" fill="#52CEB7"/>
<path d="M242.882 211.594H227.257C225.185 211.594 223.197 210.771 221.732 209.306C220.267 207.84 219.444 205.853 219.444 203.781V164.719C219.444 162.647 220.267 160.66 221.732 159.194C223.197 157.729 225.185 156.906 227.257 156.906H258.507C260.579 156.906 262.566 156.083 264.031 154.618C265.496 153.153 266.319 151.166 266.319 149.094C266.319 147.022 265.496 145.035 264.031 143.569C262.566 142.104 260.579 141.281 258.507 141.281H227.257C221.041 141.281 215.079 143.751 210.684 148.146C206.288 152.541 203.819 158.503 203.819 164.719V203.781C203.819 209.997 206.288 215.959 210.684 220.354C215.079 224.749 221.041 227.219 227.257 227.219H242.882C244.954 227.219 246.941 228.042 248.406 229.507C249.871 230.972 250.694 232.959 250.694 235.031V274.094C250.694 276.166 249.871 278.153 248.406 279.618C246.941 281.083 244.954 281.906 242.882 281.906H211.632C209.56 281.906 207.572 282.729 206.107 284.194C204.642 285.66 203.819 287.647 203.819 289.719C203.819 291.791 204.642 293.778 206.107 295.243C207.572 296.708 209.56 297.531 211.632 297.531H242.882C249.098 297.531 255.059 295.062 259.454 290.667C263.85 286.271 266.319 280.31 266.319 274.094V235.031C266.319 228.815 263.85 222.854 259.454 218.458C255.059 214.063 249.098 211.594 242.882 211.594Z" fill="#577590"/>
<path d="M149.132 156.906H180.382C182.454 156.906 184.441 156.083 185.906 154.618C187.371 153.153 188.194 151.166 188.194 149.094C188.194 147.022 187.371 145.035 185.906 143.569C184.441 142.104 182.454 141.281 180.382 141.281H149.132C142.916 141.281 136.954 143.751 132.559 148.146C128.163 152.541 125.694 158.503 125.694 164.719V203.781C125.694 209.997 128.163 215.959 132.559 220.354C136.954 224.749 142.916 227.219 149.132 227.219H164.757C166.829 227.219 168.816 228.042 170.281 229.507C171.746 230.972 172.569 232.959 172.569 235.031V274.094C172.569 276.166 171.746 278.153 170.281 279.618C168.816 281.083 166.829 281.906 164.757 281.906H133.507C131.435 281.906 129.447 282.729 127.982 284.194C126.517 285.66 125.694 287.647 125.694 289.719C125.694 291.791 126.517 293.778 127.982 295.243C129.447 296.708 131.435 297.531 133.507 297.531H164.757C170.973 297.531 176.934 295.062 181.329 290.667C185.725 286.271 188.194 280.31 188.194 274.094V235.031C188.194 228.815 185.725 222.854 181.329 218.458C176.934 214.063 170.973 211.594 164.757 211.594H149.132C147.06 211.594 145.072 210.771 143.607 209.306C142.142 207.84 141.319 205.853 141.319 203.781V164.719C141.319 162.647 142.142 160.66 143.607 159.194C145.072 157.729 147.06 156.906 149.132 156.906Z" fill="#577590"/>
<path d="M78.8191 156.906C82.9631 156.906 86.9374 158.552 89.8676 161.483C92.7979 164.413 94.4441 168.387 94.4441 172.531C94.4441 174.603 95.2672 176.59 96.7323 178.056C98.1974 179.521 100.185 180.344 102.257 180.344C104.329 180.344 106.316 179.521 107.781 178.056C109.246 176.59 110.069 174.603 110.069 172.531C110.069 164.243 106.777 156.295 100.916 150.434C95.0557 144.574 87.1071 141.281 78.8191 141.281C70.5311 141.281 62.5825 144.574 56.722 150.434C50.8615 156.295 47.5691 164.243 47.5691 172.531V266.281C47.5691 274.569 50.8615 282.518 56.722 288.378C62.5825 294.239 70.5311 297.531 78.8191 297.531C87.1071 297.531 95.0557 294.239 100.916 288.378C106.777 282.518 110.069 274.569 110.069 266.281C110.069 264.209 109.246 262.222 107.781 260.757C106.316 259.292 104.329 258.469 102.257 258.469C100.185 258.469 98.1974 259.292 96.7323 260.757C95.2672 262.222 94.4441 264.209 94.4441 266.281C94.4441 270.425 92.7979 274.4 89.8676 277.33C86.9374 280.26 82.9631 281.906 78.8191 281.906C74.6751 281.906 70.7008 280.26 67.7706 277.33C64.8403 274.4 63.1941 270.425 63.1941 266.281V172.531C63.1941 168.387 64.8403 164.413 67.7706 161.483C70.7008 158.552 74.6751 156.906 78.8191 156.906Z" fill="#577590"/>
</svg>
