<svg width="314" height="439" viewBox="0 0 314 439" fill="none" xmlns="http://www.w3.org/2000/svg">
<path d="M274.13 0.656796H86.6304C85.6058 0.644305 84.5899 0.846381 83.6481 1.25003C82.7062 1.65368 81.8593 2.24997 81.1617 3.00055L3.03668 81.1255C2.2861 81.8231 1.68981 82.6701 1.28616 83.6119C0.88251 84.5538 0.680438 85.5697 0.692929 86.5943V399.094C0.692929 409.454 4.80843 419.39 12.1341 426.716C19.4597 434.041 29.3954 438.157 39.7554 438.157H274.13C284.49 438.157 294.426 434.041 301.752 426.716C309.077 419.39 313.193 409.454 313.193 399.094V39.7193C313.193 29.3593 309.077 19.4236 301.752 12.0979C294.426 4.7723 284.49 0.656796 274.13 0.656796Z" fill="#00A6FB"/>
<path d="M141.317 0.65625H250.692C254.836 0.65625 258.811 2.30245 261.741 5.23271C264.671 8.16296 266.317 12.1372 266.317 16.2812C266.317 20.4253 264.671 24.3995 261.741 27.3298C258.811 30.26 254.836 31.9062 250.692 31.9062H141.317C137.173 31.9062 133.199 30.26 130.269 27.3298C127.339 24.3995 125.692 20.4253 125.692 16.2812C125.692 12.1372 127.339 8.16296 130.269 5.23271C133.199 2.30245 137.173 0.65625 141.317 0.65625Z" fill="#10BCFF"/>
<path d="M0.692383 180.344V149.094C0.692383 144.95 2.33859 140.975 5.26884 138.045C8.1991 135.115 12.1734 133.469 16.3174 133.469C20.4614 133.469 24.4357 135.115 27.3659 138.045C30.2962 140.975 31.9424 144.95 31.9424 149.094V180.344C31.9424 184.488 30.2962 188.462 27.3659 191.392C24.4357 194.323 20.4614 195.969 16.3174 195.969C12.1734 195.969 8.1991 194.323 5.26884 191.392C2.33859 188.462 0.692383 184.488 0.692383 180.344Z" fill="#10BCFF"/>
<path d="M0.692383 352.219V227.219C0.692383 223.075 2.33859 219.1 5.26884 216.17C8.1991 213.24 12.1734 211.594 16.3174 211.594C20.4614 211.594 24.4357 213.24 27.3659 216.17C30.2962 219.1 31.9424 223.075 31.9424 227.219V352.219C31.9424 356.363 30.2962 360.337 27.3659 363.267C24.4357 366.198 20.4614 367.844 16.3174 367.844C12.1734 367.844 8.1991 366.198 5.26884 363.267C2.33859 360.337 0.692383 356.363 0.692383 352.219Z" fill="#10BCFF"/>
<path d="M281.942 281.906V344.406C281.942 360.982 275.358 376.879 263.637 388.6C251.916 400.321 236.018 406.906 219.442 406.906H78.8174C74.6734 406.906 70.6991 408.552 67.7688 411.483C64.8386 414.413 63.1924 418.387 63.1924 422.531C63.1924 426.675 64.8386 430.65 67.7688 433.58C70.6991 436.51 74.6734 438.156 78.8174 438.156H274.13C284.49 438.156 294.426 434.041 301.751 426.715C309.077 419.389 313.192 409.454 313.192 399.094V281.906C313.192 277.762 311.546 273.788 308.616 270.858C305.686 267.927 301.711 266.281 297.567 266.281C293.423 266.281 289.449 267.927 286.519 270.858C283.589 273.788 281.942 277.762 281.942 281.906Z" fill="#008AB5"/>
<path d="M89.5993 0.654791C88.191 0.0166 86.6172 -0.160829 85.1022 0.147787C83.5872 0.456403 82.2082 1.23532 81.1618 2.37354L3.03681 80.4985C1.65292 81.5006 0.661728 82.9538 0.233928 84.608C-0.193873 86.2621 -0.0315092 88.0137 0.693062 89.561C1.31613 91.0906 2.40789 92.3832 3.81154 93.2535C5.21519 94.1238 6.85853 94.5268 8.50556 94.4048H55.3806C60.5103 94.4048 65.5899 93.3944 70.3291 91.4313C75.0684 89.4683 79.3746 86.5909 83.0019 82.9637C86.6292 79.3364 89.5065 75.0301 91.4696 70.2909C93.4327 65.5516 94.443 60.472 94.443 55.3423V8.46729C94.5651 6.82026 94.162 5.17692 93.2918 3.77327C92.4215 2.36962 91.1288 1.27786 89.5993 0.654791Z" fill="#008AB5"/>
<path d="M274.131 0.6553H86.6306C85.6547 0.422843 84.6378 0.422843 83.6619 0.6553C82.6869 0.988434 81.8221 1.58298 81.1619 2.37405L3.03689 80.4991C1.90742 81.2273 1.076 82.3359 0.693141 83.624C0.460685 84.6 0.460685 85.6169 0.693141 86.5928V399.093C0.693141 409.453 4.80864 419.389 12.1343 426.714C19.4599 434.04 29.3956 438.155 39.7556 438.155H274.131C284.491 438.155 294.426 434.04 301.752 426.714C309.078 419.389 313.193 409.453 313.193 399.093V39.7178C313.193 29.3578 309.078 19.4221 301.752 12.0964C294.426 4.7708 284.491 0.6553 274.131 0.6553ZM78.8181 27.3741V55.3428C78.8181 61.5588 76.3488 67.5202 71.9535 71.9156C67.5581 76.311 61.5966 78.7803 55.3806 78.7803H27.4119L78.8181 27.3741ZM297.568 399.093C297.568 405.309 295.099 411.27 290.703 415.666C286.308 420.061 280.347 422.53 274.131 422.53H39.7556C33.5396 422.53 27.5782 420.061 23.1828 415.666C18.7874 411.27 16.3181 405.309 16.3181 399.093V94.4053H55.3806C60.5104 94.4053 65.5899 93.3949 70.3292 91.4318C75.0685 89.4688 79.3747 86.5914 83.002 82.9642C86.6293 79.3369 89.5066 75.0306 91.4697 70.2914C93.4328 65.5521 94.4431 60.4726 94.4431 55.3428V16.2803H274.131C280.347 16.2803 286.308 18.7496 290.703 23.145C295.099 27.5404 297.568 33.5018 297.568 39.7178V399.093Z" fill="#3D405B"/>
<path d="M156.942 297.531C148.654 297.531 140.706 294.239 134.845 288.378C128.985 282.518 125.692 274.569 125.692 266.281V172.531C125.692 164.243 128.985 156.295 134.845 150.434C140.706 144.574 148.654 141.281 156.942 141.281C165.23 141.281 173.179 144.574 179.039 150.434C184.9 156.295 188.192 164.243 188.192 172.531V266.281C188.192 274.569 184.9 282.518 179.039 288.378C173.179 294.239 165.23 297.531 156.942 297.531ZM156.942 156.906C152.798 156.906 148.824 158.552 145.894 161.483C142.964 164.413 141.317 168.387 141.317 172.531V266.281C141.317 270.425 142.964 274.4 145.894 277.33C148.824 280.26 152.798 281.906 156.942 281.906C161.086 281.906 165.061 280.26 167.991 277.33C170.921 274.4 172.567 270.425 172.567 266.281V172.531C172.567 168.387 170.921 164.413 167.991 161.483C165.061 158.552 161.086 156.906 156.942 156.906Z" fill="#F8EDEB"/>
<path d="M55.3799 297.531C53.3079 297.531 51.3207 296.708 49.8556 295.243C48.3905 293.778 47.5674 291.791 47.5674 289.719V149.094C47.5674 147.022 48.3905 145.035 49.8556 143.569C51.3207 142.104 53.3079 141.281 55.3799 141.281C69.8839 141.281 83.7939 147.043 94.0498 157.299C104.306 167.555 110.067 181.465 110.067 195.969V242.844C110.067 257.348 104.306 271.258 94.0498 281.514C83.7939 291.77 69.8839 297.531 55.3799 297.531ZM63.1924 157.688V281.906C72.0155 280.105 79.9455 275.311 85.6401 268.335C91.3347 261.359 94.4442 252.63 94.4424 243.625V196.75C94.6267 187.611 91.6005 178.698 85.8905 171.56C80.1806 164.423 72.1485 159.514 63.1924 157.688Z" fill="#F8EDEB"/>
<path d="M235.067 297.531C226.779 297.531 218.831 294.239 212.97 288.378C207.11 282.518 203.817 274.569 203.817 266.281V172.531C203.817 164.243 207.11 156.295 212.97 150.434C218.831 144.574 226.779 141.281 235.067 141.281C243.355 141.281 251.304 144.574 257.164 150.434C263.025 156.295 266.317 164.243 266.317 172.531C266.317 174.603 265.494 176.59 264.029 178.056C262.564 179.521 260.577 180.344 258.505 180.344C256.433 180.344 254.446 179.521 252.981 178.056C251.515 176.59 250.692 174.603 250.692 172.531C250.692 168.387 249.046 164.413 246.116 161.483C243.186 158.552 239.211 156.906 235.067 156.906C230.923 156.906 226.949 158.552 224.019 161.483C221.089 164.413 219.442 168.387 219.442 172.531V266.281C219.442 270.425 221.089 274.4 224.019 277.33C226.949 280.26 230.923 281.906 235.067 281.906C239.211 281.906 243.186 280.26 246.116 277.33C249.046 274.4 250.692 270.425 250.692 266.281C250.692 264.209 251.515 262.222 252.981 260.757C254.446 259.292 256.433 258.469 258.505 258.469C260.577 258.469 262.564 259.292 264.029 260.757C265.494 262.222 266.317 264.209 266.317 266.281C266.317 274.569 263.025 282.518 257.164 288.378C251.304 294.239 243.355 297.531 235.067 297.531Z" fill="#F8EDEB"/>
</svg>
