<svg width="313" height="438" viewBox="0 0 313 438" fill="none" xmlns="http://www.w3.org/2000/svg">
<path d="M273.438 0H39.0625C17.4889 0 0 17.4889 0 39.0625V398.438C0 420.011 17.4889 437.5 39.0625 437.5H273.438C295.011 437.5 312.5 420.011 312.5 398.438V39.0625C312.5 17.4889 295.011 0 273.438 0Z" fill="#FFF0D3"/>
<path d="M140.625 0H250C254.144 0 258.118 1.6462 261.049 4.57646C263.979 7.50671 265.625 11.481 265.625 15.625C265.625 19.769 263.979 23.7433 261.049 26.6735C258.118 29.6038 254.144 31.25 250 31.25H140.625C136.481 31.25 132.507 29.6038 129.576 26.6735C126.646 23.7433 125 19.769 125 15.625C125 11.481 126.646 7.50671 129.576 4.57646C132.507 1.6462 136.481 0 140.625 0Z" fill="#FFFAF0"/>
<path d="M0 179.688V148.438C0 144.293 1.6462 140.319 4.57646 137.389C7.50672 134.459 11.481 132.812 15.625 132.812C19.769 132.812 23.7433 134.459 26.6735 137.389C29.6038 140.319 31.25 144.293 31.25 148.438V179.688C31.25 183.832 29.6038 187.806 26.6735 190.736C23.7433 193.666 19.769 195.312 15.625 195.312C11.481 195.312 7.50672 193.666 4.57646 190.736C1.6462 187.806 0 183.832 0 179.688Z" fill="#FFFAF0"/>
<path d="M0 351.562V226.562C0 222.418 1.6462 218.444 4.57646 215.514C7.50672 212.584 11.481 210.938 15.625 210.938C19.769 210.938 23.7433 212.584 26.6735 215.514C29.6038 218.444 31.25 222.418 31.25 226.562V351.562C31.25 355.707 29.6038 359.681 26.6735 362.611C23.7433 365.541 19.769 367.188 15.625 367.188C11.481 367.188 7.50672 365.541 4.57646 362.611C1.6462 359.681 0 355.707 0 351.562Z" fill="#FFFAF0"/>
<path d="M281.25 281.25V343.75C281.25 360.326 274.665 376.223 262.944 387.944C251.223 399.665 235.326 406.25 218.75 406.25H78.125C73.981 406.25 70.0067 407.896 67.0765 410.826C64.1462 413.757 62.5 417.731 62.5 421.875C62.5 426.019 64.1462 429.993 67.0765 432.924C70.0067 435.854 73.981 437.5 78.125 437.5H273.438C283.798 437.5 293.733 433.384 301.059 426.059C308.384 418.733 312.5 408.798 312.5 398.438V281.25C312.5 277.106 310.854 273.132 307.924 270.201C304.993 267.271 301.019 265.625 296.875 265.625C292.731 265.625 288.757 267.271 285.826 270.201C282.896 273.132 281.25 277.106 281.25 281.25Z" fill="#FCE1B1"/>
<path d="M102.656 156.25C100.795 156.055 98.9236 156.508 97.3578 157.532C95.7921 158.557 94.6281 160.091 94.0625 161.875L78.4375 215L62.8125 161.875C62.2318 159.971 60.9722 158.346 59.2729 157.309C57.5735 156.272 55.5526 155.895 53.5938 156.25C51.7302 156.546 50.0321 157.494 48.8017 158.924C47.5714 160.355 46.8886 162.176 46.875 164.063V304.688C46.875 306.76 47.6981 308.747 49.1632 310.212C50.6284 311.677 52.6155 312.5 54.6875 312.5C56.7595 312.5 58.7466 311.677 60.2118 310.212C61.6769 308.747 62.5 306.76 62.5 304.688V217.344L70.625 244.375C71.11 246.073 72.1349 247.566 73.5445 248.63C74.9541 249.693 76.6718 250.268 78.4375 250.268C80.2032 250.268 81.9209 249.693 83.3305 248.63C84.7401 247.566 85.765 246.073 86.25 244.375L93.75 217.344V304.688C93.75 306.76 94.5731 308.747 96.0382 310.212C97.5033 311.677 99.4905 312.5 101.562 312.5C103.635 312.5 105.622 311.677 107.087 310.212C108.552 308.747 109.375 306.76 109.375 304.688V164.063C109.361 162.176 108.679 160.355 107.448 158.924C106.218 157.494 104.52 156.546 102.656 156.25Z" fill="#577590"/>
<path d="M164.062 156.25H132.812C130.74 156.25 128.753 157.073 127.288 158.538C125.823 160.003 125 161.99 125 164.062V304.688C125 306.76 125.823 308.747 127.288 310.212C128.753 311.677 130.74 312.5 132.812 312.5C134.885 312.5 136.872 311.677 138.337 310.212C139.802 308.747 140.625 306.76 140.625 304.688V250H164.062C170.279 250 176.24 247.531 180.635 243.135C185.031 238.74 187.5 232.779 187.5 226.562V179.688C187.5 173.471 185.031 167.51 180.635 163.115C176.24 158.719 170.279 156.25 164.062 156.25ZM171.875 226.562C171.875 228.635 171.052 230.622 169.587 232.087C168.122 233.552 166.135 234.375 164.062 234.375H140.625V171.875H164.062C166.135 171.875 168.122 172.698 169.587 174.163C171.052 175.628 171.875 177.615 171.875 179.688V226.562Z" fill="#577590"/>
<path d="M257.812 156.25C255.74 156.25 253.753 157.073 252.288 158.538C250.823 160.003 250 161.99 250 164.062V242.188H220.312L234.375 165.469C234.74 163.439 234.288 161.347 233.117 159.65C231.946 157.952 230.152 156.786 228.125 156.406C226.1 156.082 224.029 156.551 222.341 157.715C220.653 158.879 219.479 160.649 219.062 162.656L203.437 248.594C203.201 249.722 203.234 250.889 203.532 252.002C203.831 253.115 204.387 254.142 205.156 255C205.875 255.88 206.781 256.589 207.808 257.075C208.835 257.562 209.957 257.814 211.094 257.812H250V304.688C250 306.76 250.823 308.747 252.288 310.212C253.753 311.677 255.74 312.5 257.812 312.5C259.884 312.5 261.871 311.677 263.337 310.212C264.802 308.747 265.625 306.76 265.625 304.688V164.062C265.625 161.99 264.802 160.003 263.337 158.538C261.871 157.073 259.884 156.25 257.812 156.25Z" fill="#577590"/>
<path d="M139.375 50.311C138.215 48.5705 136.41 47.3623 134.359 46.952C132.308 46.5418 130.178 46.9632 128.437 48.1235C126.697 49.2838 125.489 51.088 125.078 53.1392C124.668 55.1904 125.09 57.3205 126.25 59.061C130.456 64.5253 132.737 71.2276 132.737 78.1235C132.737 85.0194 130.456 91.7217 126.25 97.186C125.111 98.9328 124.702 101.056 125.111 103.101C125.52 105.146 126.714 106.949 128.437 108.124C129.763 108.912 131.27 109.343 132.812 109.374C134.1 109.362 135.367 109.044 136.508 108.446C137.649 107.849 138.632 106.988 139.375 105.936C145.314 97.8791 148.518 88.1327 148.518 78.1235C148.518 68.1143 145.314 58.368 139.375 50.311Z" fill="#FEC601"/>
<path d="M95.9374 57.3447C95.2051 58.071 94.6239 58.9351 94.2273 59.8871C93.8307 60.8391 93.6264 61.8603 93.6264 62.8916C93.6264 63.923 93.8307 64.9441 94.2273 65.8961C94.6239 66.8481 95.2051 67.7122 95.9374 68.4385C97.2735 69.6728 98.3384 71.1713 99.0647 72.839C99.7909 74.5066 100.163 76.3071 100.156 78.126C100.177 79.9932 99.8139 81.8448 99.088 83.5653C98.3622 85.2858 97.2897 86.8383 95.9374 88.126C94.8131 89.2096 94.0393 90.6052 93.7158 92.1328C93.3924 93.6604 93.5341 95.2498 94.1227 96.6961C94.7113 98.1424 95.7198 99.3791 97.018 100.247C98.3163 101.114 99.8447 101.573 101.406 101.563C103.438 101.544 105.39 100.763 106.875 99.376C109.743 96.6303 112.025 93.3316 113.583 89.6793C115.14 86.0269 115.941 82.0966 115.937 78.126C115.946 74.2151 115.162 70.343 113.631 66.7441C112.1 63.1452 109.855 59.8944 107.031 57.1885C106.295 56.4664 105.422 55.8973 104.465 55.514C103.507 55.1307 102.483 54.9408 101.452 54.9554C100.42 54.9699 99.402 55.1885 98.4556 55.5986C97.5091 56.0087 96.6533 56.6022 95.9374 57.3447Z" fill="#FEC601"/>
<path d="M62.5 93.75C71.1294 93.75 78.125 86.7544 78.125 78.125C78.125 69.4956 71.1294 62.5 62.5 62.5C53.8706 62.5 46.875 69.4956 46.875 78.125C46.875 86.7544 53.8706 93.75 62.5 93.75Z" fill="#FEC601"/>
</svg>
