<svg width="314" height="439" viewBox="0 0 314 439" fill="none" xmlns="http://www.w3.org/2000/svg">
<path d="M274.13 0.656796H86.6304C85.6058 0.644305 84.5899 0.846381 83.6481 1.25003C82.7062 1.65368 81.8593 2.24997 81.1617 3.00055L3.03668 81.1255C2.2861 81.8231 1.68981 82.6701 1.28616 83.6119C0.88251 84.5538 0.680438 85.5697 0.692929 86.5943V399.094C0.692929 409.454 4.80843 419.39 12.1341 426.716C19.4597 434.041 29.3954 438.157 39.7554 438.157H274.13C284.49 438.157 294.426 434.041 301.752 426.716C309.077 419.39 313.193 409.454 313.193 399.094V39.7193C313.193 29.3593 309.077 19.4236 301.752 12.0979C294.426 4.7723 284.49 0.656796 274.13 0.656796Z" fill="#EF6461"/>
<path d="M141.318 0.65625H250.693C254.837 0.65625 258.811 2.30245 261.741 5.23271C264.672 8.16296 266.318 12.1372 266.318 16.2812C266.318 20.4253 264.672 24.3995 261.741 27.3298C258.811 30.26 254.837 31.9062 250.693 31.9062H141.318C137.174 31.9062 133.2 30.26 130.269 27.3298C127.339 24.3995 125.693 20.4253 125.693 16.2812C125.693 12.1372 127.339 8.16296 130.269 5.23271C133.2 2.30245 137.174 0.65625 141.318 0.65625Z" fill="#EF877F"/>
<path d="M0.692871 180.344V149.094C0.692871 144.95 2.33907 140.975 5.26933 138.045C8.19959 135.115 12.1739 133.469 16.3179 133.469C20.4619 133.469 24.4362 135.115 27.3664 138.045C30.2967 140.975 31.9429 144.95 31.9429 149.094V180.344C31.9429 184.488 30.2967 188.462 27.3664 191.392C24.4362 194.323 20.4619 195.969 16.3179 195.969C12.1739 195.969 8.19959 194.323 5.26933 191.392C2.33907 188.462 0.692871 184.488 0.692871 180.344Z" fill="#EF877F"/>
<path d="M0.692871 352.219V227.219C0.692871 223.075 2.33907 219.1 5.26933 216.17C8.19959 213.24 12.1739 211.594 16.3179 211.594C20.4619 211.594 24.4362 213.24 27.3664 216.17C30.2967 219.1 31.9429 223.075 31.9429 227.219V352.219C31.9429 356.363 30.2967 360.337 27.3664 363.267C24.4362 366.198 20.4619 367.844 16.3179 367.844C12.1739 367.844 8.19959 366.198 5.26933 363.267C2.33907 360.337 0.692871 356.363 0.692871 352.219Z" fill="#EF877F"/>
<path d="M281.943 281.906V344.406C281.943 360.982 275.358 376.879 263.637 388.6C251.916 400.321 236.019 406.906 219.443 406.906H78.8179C74.6739 406.906 70.6996 408.552 67.7693 411.483C64.8391 414.413 63.1929 418.387 63.1929 422.531C63.1929 426.675 64.8391 430.65 67.7693 433.58C70.6996 436.51 74.6739 438.156 78.8179 438.156H274.13C284.49 438.156 294.426 434.041 301.752 426.715C309.077 419.389 313.193 409.454 313.193 399.094V281.906C313.193 277.762 311.547 273.788 308.616 270.858C305.686 267.927 301.712 266.281 297.568 266.281C293.424 266.281 289.45 267.927 286.519 270.858C283.589 273.788 281.943 277.762 281.943 281.906Z" fill="#DB5252"/>
<path d="M89.5993 0.654791C88.191 0.0166 86.6172 -0.160829 85.1022 0.147787C83.5872 0.456403 82.2082 1.23532 81.1618 2.37354L3.03681 80.4985C1.65292 81.5006 0.661728 82.9538 0.233928 84.608C-0.193873 86.2621 -0.0315092 88.0137 0.693062 89.561C1.31613 91.0906 2.40789 92.3832 3.81154 93.2535C5.21519 94.1238 6.85853 94.5268 8.50556 94.4048H55.3806C60.5103 94.4048 65.5899 93.3944 70.3291 91.4313C75.0684 89.4683 79.3746 86.5909 83.0019 82.9637C86.6292 79.3364 89.5065 75.0301 91.4696 70.2909C93.4327 65.5516 94.443 60.472 94.443 55.3423V8.46729C94.5651 6.82026 94.162 5.17692 93.2918 3.77327C92.4215 2.36962 91.1288 1.27786 89.5993 0.654791Z" fill="#DB5252"/>
<path d="M149.13 141.281H133.505C131.433 141.281 129.446 142.104 127.981 143.569C126.516 145.035 125.693 147.022 125.693 149.094V289.719C125.693 291.791 126.516 293.778 127.981 295.243C129.446 296.708 131.433 297.531 133.505 297.531H149.13C159.49 297.531 169.426 293.416 176.752 286.09C184.077 278.764 188.193 268.829 188.193 258.469V180.344C188.193 169.984 184.077 160.048 176.752 152.722C169.426 145.397 159.49 141.281 149.13 141.281ZM172.568 258.469C172.568 264.685 170.099 270.646 165.703 275.042C161.308 279.437 155.346 281.906 149.13 281.906H141.318V156.906H149.13C155.346 156.906 161.308 159.376 165.703 163.771C170.099 168.166 172.568 174.128 172.568 180.344V258.469Z" fill="#F8EDEB"/>
<path d="M86.6304 141.281H55.3804C53.3084 141.281 51.3212 142.104 49.8561 143.569C48.391 145.035 47.5679 147.022 47.5679 149.094V289.719C47.5679 291.791 48.391 293.778 49.8561 295.243C51.3212 296.708 53.3084 297.531 55.3804 297.531C57.4524 297.531 59.4395 296.708 60.9046 295.243C62.3698 293.778 63.1929 291.791 63.1929 289.719V235.031H86.6304C92.8464 235.031 98.8078 232.562 103.203 228.167C107.599 223.771 110.068 217.81 110.068 211.594V164.719C110.068 158.503 107.599 152.541 103.203 148.146C98.8078 143.751 92.8464 141.281 86.6304 141.281ZM94.4429 211.594C94.4429 213.666 93.6198 215.653 92.1546 217.118C90.6895 218.583 88.7024 219.406 86.6304 219.406H63.1929V156.906H86.6304C88.7024 156.906 90.6895 157.729 92.1546 159.194C93.6198 160.66 94.4429 162.647 94.4429 164.719V211.594Z" fill="#F8EDEB"/>
<path d="M258.505 203.781H219.443V156.906H258.505C260.577 156.906 262.565 156.083 264.03 154.618C265.495 153.153 266.318 151.166 266.318 149.094C266.318 147.022 265.495 145.035 264.03 143.569C262.565 142.104 260.577 141.281 258.505 141.281H211.63C209.558 141.281 207.571 142.104 206.106 143.569C204.641 145.035 203.818 147.022 203.818 149.094V289.719C203.818 291.791 204.641 293.778 206.106 295.243C207.571 296.708 209.558 297.531 211.63 297.531C213.702 297.531 215.69 296.708 217.155 295.243C218.62 293.778 219.443 291.791 219.443 289.719V219.406H258.505C260.577 219.406 262.565 218.583 264.03 217.118C265.495 215.653 266.318 213.666 266.318 211.594C266.318 209.522 265.495 207.535 264.03 206.069C262.565 204.604 260.577 203.781 258.505 203.781Z" fill="#F8EDEB"/>
</svg>
