<svg width="314" height="439" viewBox="0 0 314 439" fill="none" xmlns="http://www.w3.org/2000/svg">
<path d="M274.188 1.25055H86.688C85.6634 1.23805 84.6475 1.44013 83.7057 1.84378C82.7638 2.24743 81.9169 2.84372 81.2193 3.5943L3.0943 81.7193C2.34372 82.4169 1.74742 83.2638 1.34378 84.2057C0.940127 85.1475 0.738055 86.1634 0.750546 87.188V399.688C0.750546 410.048 4.86605 419.984 12.1917 427.309C19.5173 434.635 29.453 438.751 39.813 438.751H274.188C284.548 438.751 294.484 434.635 301.809 427.309C309.135 419.984 313.251 410.048 313.251 399.688V40.313C313.251 29.953 309.135 20.0173 301.809 12.6917C294.484 5.36605 284.548 1.25055 274.188 1.25055Z" fill="#CFFCFF"/>
<path d="M141.375 1.25H250.75C254.894 1.25 258.868 2.8962 261.799 5.82646C264.729 8.75671 266.375 12.731 266.375 16.875C266.375 21.019 264.729 24.9933 261.799 27.9235C258.868 30.8538 254.894 32.5 250.75 32.5H141.375C137.231 32.5 133.257 30.8538 130.326 27.9235C127.396 24.9933 125.75 21.019 125.75 16.875C125.75 12.731 127.396 8.75671 130.326 5.82646C133.257 2.8962 137.231 1.25 141.375 1.25Z" fill="#F5FFFF"/>
<path d="M0.75 180.938V149.688C0.75 145.543 2.3962 141.569 5.32646 138.639C8.25672 135.709 12.231 134.062 16.375 134.062C20.519 134.062 24.4933 135.709 27.4235 138.639C30.3538 141.569 32 145.543 32 149.688V180.938C32 185.082 30.3538 189.056 27.4235 191.986C24.4933 194.916 20.519 196.562 16.375 196.562C12.231 196.562 8.25672 194.916 5.32646 191.986C2.3962 189.056 0.75 185.082 0.75 180.938Z" fill="#F5FFFF"/>
<path d="M0.75 352.812V227.812C0.75 223.668 2.3962 219.694 5.32646 216.764C8.25672 213.834 12.231 212.188 16.375 212.188C20.519 212.188 24.4933 213.834 27.4235 216.764C30.3538 219.694 32 223.668 32 227.812V352.812C32 356.957 30.3538 360.931 27.4235 363.861C24.4933 366.791 20.519 368.438 16.375 368.438C12.231 368.438 8.25672 366.791 5.32646 363.861C2.3962 360.931 0.75 356.957 0.75 352.812Z" fill="#F5FFFF"/>
<path d="M282 282.5V345C282 361.576 275.415 377.473 263.694 389.194C251.973 400.915 236.076 407.5 219.5 407.5H78.875C74.731 407.5 70.7567 409.146 67.8265 412.076C64.8962 415.007 63.25 418.981 63.25 423.125C63.25 427.269 64.8962 431.243 67.8265 434.174C70.7567 437.104 74.731 438.75 78.875 438.75H274.188C284.548 438.75 294.483 434.634 301.809 427.309C309.134 419.983 313.25 410.048 313.25 399.688V282.5C313.25 278.356 311.604 274.382 308.674 271.451C305.743 268.521 301.769 266.875 297.625 266.875C293.481 266.875 289.507 268.521 286.576 271.451C283.646 274.382 282 278.356 282 282.5Z" fill="#ABFDFF"/>
<path d="M89.6552 1.24854C88.2469 0.61035 86.6731 0.432921 85.1581 0.741537C83.6431 1.05015 82.2641 1.82907 81.2177 2.96729L3.09272 81.0923C1.70883 82.0943 0.717636 83.5476 0.289836 85.2017C-0.137964 86.8559 0.024399 88.6075 0.74897 90.1548C1.37204 91.6843 2.46379 92.977 3.86745 93.8473C5.2711 94.7175 6.91444 95.1206 8.56147 94.9985H55.4365C60.5662 94.9985 65.6458 93.9882 70.385 92.0251C75.1243 90.062 79.4305 87.1847 83.0578 83.5574C86.6851 79.9301 89.5624 75.6239 91.5255 70.8846C93.4886 66.1453 94.499 61.0658 94.499 55.936V9.06104C94.621 7.41401 94.2179 5.77067 93.3477 4.36702C92.4774 2.96337 91.1847 1.87161 89.6552 1.24854Z" fill="#ABFDFF"/>
<path d="M86.6875 141.875H55.4375C53.3655 141.875 51.3784 142.698 49.9132 144.163C48.4481 145.628 47.625 147.615 47.625 149.688V290.312C47.625 292.385 48.4481 294.372 49.9132 295.837C51.3784 297.302 53.3655 298.125 55.4375 298.125C57.5095 298.125 59.4966 297.302 60.9618 295.837C62.4269 294.372 63.25 292.385 63.25 290.312V235.625H86.6875C92.9035 235.625 98.8649 233.156 103.26 228.76C107.656 224.365 110.125 218.404 110.125 212.188V165.312C110.125 159.096 107.656 153.135 103.26 148.74C98.8649 144.344 92.9035 141.875 86.6875 141.875ZM94.5 212.188C94.5 214.26 93.6769 216.247 92.2118 217.712C90.7467 219.177 88.7595 220 86.6875 220H63.25V157.5H86.6875C88.7595 157.5 90.7467 158.323 92.2118 159.788C93.6769 161.253 94.5 163.24 94.5 165.312V212.188Z" fill="#577590"/>
<path d="M258.562 220H242.938C240.865 220 238.878 220.823 237.413 222.288C235.948 223.753 235.125 225.74 235.125 227.812C235.125 229.885 235.948 231.872 237.413 233.337C238.878 234.802 240.865 235.625 242.938 235.625H250.75V266.875C250.75 271.019 249.104 274.993 246.174 277.924C243.243 280.854 239.269 282.5 235.125 282.5C230.981 282.5 227.007 280.854 224.076 277.924C221.146 274.993 219.5 271.019 219.5 266.875V173.125C219.5 168.981 221.146 165.007 224.076 162.076C227.007 159.146 230.981 157.5 235.125 157.5C239.269 157.5 243.243 159.146 246.174 162.076C249.104 165.007 250.75 168.981 250.75 173.125C250.75 175.197 251.573 177.184 253.038 178.649C254.503 180.114 256.49 180.938 258.562 180.938C260.635 180.938 262.622 180.114 264.087 178.649C265.552 177.184 266.375 175.197 266.375 173.125C266.375 164.837 263.083 156.888 257.222 151.028C251.362 145.167 243.413 141.875 235.125 141.875C226.837 141.875 218.888 145.167 213.028 151.028C207.167 156.888 203.875 164.837 203.875 173.125V266.875C203.875 275.163 207.167 283.112 213.028 288.972C218.888 294.833 226.837 298.125 235.125 298.125C243.413 298.125 251.362 294.833 257.222 288.972C263.083 283.112 266.375 275.163 266.375 266.875V227.812C266.375 225.74 265.552 223.753 264.087 222.288C262.622 220.823 260.635 220 258.562 220Z" fill="#577590"/>
<path d="M180.438 141.875C178.366 141.875 176.379 142.698 174.914 144.163C173.449 145.628 172.625 147.615 172.625 149.687V242.187L141.375 147.188C140.831 145.419 139.653 143.915 138.066 142.963C136.48 142.012 134.598 141.68 132.782 142.031C130.96 142.327 129.301 143.257 128.1 144.659C126.899 146.06 126.232 147.842 126.219 149.687V290.312C126.219 292.384 127.042 294.372 128.507 295.837C129.973 297.302 131.96 298.125 134.032 298.125C136.104 298.125 138.091 297.302 139.556 295.837C141.021 294.372 141.844 292.384 141.844 290.312V197.812L173.094 292.812C173.571 294.378 174.547 295.744 175.873 296.704C177.199 297.663 178.802 298.162 180.438 298.125H181.688C183.537 297.826 185.216 296.872 186.421 295.438C187.625 294.004 188.275 292.185 188.25 290.312V149.687C188.25 147.615 187.427 145.628 185.962 144.163C184.497 142.698 182.51 141.875 180.438 141.875Z" fill="#577590"/>
</svg>
