<svg width="314" height="439" viewBox="0 0 314 439" fill="none" xmlns="http://www.w3.org/2000/svg">
<path d="M274.132 0.656796H86.6324C85.6078 0.644305 84.5919 0.846381 83.65 1.25003C82.7082 1.65368 81.8612 2.24997 81.1636 3.00055L3.03863 81.1255C2.28805 81.8231 1.69176 82.6701 1.28811 83.6119C0.884463 84.5538 0.682391 85.5697 0.694882 86.5943V399.094C0.694882 409.454 4.81038 419.39 12.136 426.716C19.4617 434.041 29.3974 438.157 39.7574 438.157H274.132C284.492 438.157 294.428 434.041 301.754 426.716C309.079 419.39 313.195 409.454 313.195 399.094V39.7193C313.195 29.3593 309.079 19.4236 301.754 12.0979C294.428 4.7723 284.492 0.656796 274.132 0.656796Z" fill="#FFBA49"/>
<path d="M141.319 0.65625H250.694C254.838 0.65625 258.813 2.30245 261.743 5.23271C264.673 8.16296 266.319 12.1372 266.319 16.2812C266.319 20.4253 264.673 24.3995 261.743 27.3298C258.813 30.26 254.838 31.9062 250.694 31.9062H141.319C137.175 31.9062 133.201 30.26 130.271 27.3298C127.341 24.3995 125.694 20.4253 125.694 16.2812C125.694 12.1372 127.341 8.16296 130.271 5.23271C133.201 2.30245 137.175 0.65625 141.319 0.65625Z" fill="#FFD199"/>
<path d="M0.694336 180.344V149.094C0.694336 144.95 2.34054 140.975 5.2708 138.045C8.20105 135.115 12.1753 133.469 16.3193 133.469C20.4633 133.469 24.4376 135.115 27.3679 138.045C30.2981 140.975 31.9443 144.95 31.9443 149.094V180.344C31.9443 184.488 30.2981 188.462 27.3679 191.392C24.4376 194.323 20.4633 195.969 16.3193 195.969C12.1753 195.969 8.20105 194.323 5.2708 191.392C2.34054 188.462 0.694336 184.488 0.694336 180.344Z" fill="#FFD199"/>
<path d="M0.694336 352.219V227.219C0.694336 223.075 2.34054 219.1 5.2708 216.17C8.20105 213.24 12.1753 211.594 16.3193 211.594C20.4633 211.594 24.4376 213.24 27.3679 216.17C30.2981 219.1 31.9443 223.075 31.9443 227.219V352.219C31.9443 356.363 30.2981 360.337 27.3679 363.267C24.4376 366.198 20.4633 367.844 16.3193 367.844C12.1753 367.844 8.20105 366.198 5.2708 363.267C2.34054 360.337 0.694336 356.363 0.694336 352.219Z" fill="#FFD199"/>
<path d="M281.944 281.906V344.406C281.944 360.982 275.36 376.879 263.639 388.6C251.917 400.321 236.02 406.906 219.444 406.906H78.8193C74.6753 406.906 70.7011 408.552 67.7708 411.483C64.8405 414.413 63.1943 418.387 63.1943 422.531C63.1943 426.675 64.8405 430.65 67.7708 433.58C70.7011 436.51 74.6753 438.156 78.8193 438.156H274.132C284.492 438.156 294.428 434.041 301.753 426.715C309.079 419.389 313.194 409.454 313.194 399.094V281.906C313.194 277.762 311.548 273.788 308.618 270.858C305.688 267.927 301.713 266.281 297.569 266.281C293.425 266.281 289.451 267.927 286.521 270.858C283.591 273.788 281.944 277.762 281.944 281.906Z" fill="#FFAA2E"/>
<path d="M89.5993 0.654791C88.191 0.0166 86.6172 -0.160829 85.1022 0.147787C83.5872 0.456403 82.2082 1.23532 81.1618 2.37354L3.03681 80.4985C1.65292 81.5006 0.661728 82.9538 0.233928 84.608C-0.193873 86.2621 -0.0315092 88.0137 0.693062 89.561C1.31613 91.0906 2.40789 92.3832 3.81154 93.2535C5.21519 94.1238 6.85853 94.5268 8.50556 94.4048H55.3806C60.5103 94.4048 65.5899 93.3944 70.3291 91.4313C75.0684 89.4683 79.3746 86.5909 83.0019 82.9637C86.6292 79.3364 89.5065 75.0301 91.4696 70.2909C93.4327 65.5516 94.443 60.472 94.443 55.3423V8.46729C94.5651 6.82026 94.162 5.17692 93.2918 3.77327C92.4215 2.36962 91.1288 1.27786 89.5993 0.654791Z" fill="#FFAA2E"/>
<path d="M86.6318 141.281H55.3818C53.3098 141.281 51.3227 142.104 49.8576 143.569C48.3924 145.035 47.5693 147.022 47.5693 149.094V289.719C47.5693 291.791 48.3924 293.778 49.8576 295.243C51.3227 296.708 53.3098 297.531 55.3818 297.531C57.4538 297.531 59.441 296.708 60.9061 295.243C62.3712 293.778 63.1943 291.791 63.1943 289.719V235.031H86.6318C92.8478 235.031 98.8093 232.562 103.205 228.167C107.6 223.771 110.069 217.81 110.069 211.594V164.719C110.069 158.503 107.6 152.541 103.205 148.146C98.8093 143.751 92.8478 141.281 86.6318 141.281ZM94.4443 211.594C94.4443 213.666 93.6212 215.653 92.1561 217.118C90.691 218.583 88.7038 219.406 86.6318 219.406H63.1943V156.906H86.6318C88.7038 156.906 90.691 157.729 92.1561 159.194C93.6212 160.66 94.4443 162.647 94.4443 164.719V211.594Z" fill="#F8EDEB"/>
<path d="M164.757 141.281H133.507C131.435 141.281 129.448 142.104 127.983 143.569C126.517 145.035 125.694 147.022 125.694 149.094V289.719C125.694 291.791 126.517 293.778 127.983 295.243C129.448 296.708 131.435 297.531 133.507 297.531C135.579 297.531 137.566 296.708 139.031 295.243C140.496 293.778 141.319 291.791 141.319 289.719V235.031H164.757C170.973 235.031 176.934 232.562 181.33 228.167C185.725 223.771 188.194 217.81 188.194 211.594V164.719C188.194 158.503 185.725 152.541 181.33 148.146C176.934 143.751 170.973 141.281 164.757 141.281ZM172.569 211.594C172.569 213.666 171.746 215.653 170.281 217.118C168.816 218.583 166.829 219.406 164.757 219.406H141.319V156.906H164.757C166.829 156.906 168.816 157.729 170.281 159.194C171.746 160.66 172.569 162.647 172.569 164.719V211.594Z" fill="#F8EDEB"/>
<path d="M258.507 141.281H211.632C209.56 141.281 207.573 142.104 206.108 143.569C204.642 145.035 203.819 147.022 203.819 149.094C203.819 151.166 204.642 153.153 206.108 154.618C207.573 156.083 209.56 156.906 211.632 156.906H227.257V289.719C227.257 291.791 228.08 293.778 229.545 295.243C231.01 296.708 232.997 297.531 235.069 297.531C237.141 297.531 239.128 296.708 240.594 295.243C242.059 293.778 242.882 291.791 242.882 289.719V156.906H258.507C260.579 156.906 262.566 156.083 264.031 154.618C265.496 153.153 266.319 151.166 266.319 149.094C266.319 147.022 265.496 145.035 264.031 143.569C262.566 142.104 260.579 141.281 258.507 141.281Z" fill="#F8EDEB"/>
</svg>
