<svg width="314" height="439" viewBox="0 0 314 439" fill="none" xmlns="http://www.w3.org/2000/svg">
<path d="M274.132 0.656796H86.6321C85.6075 0.644305 84.5916 0.846381 83.6498 1.25003C82.7079 1.65368 81.861 2.24997 81.1634 3.00055L3.03839 81.1255C2.28781 81.8231 1.69152 82.6701 1.28787 83.6119C0.884219 84.5538 0.682147 85.5697 0.694637 86.5943V399.094C0.694637 409.454 4.81014 419.39 12.1358 426.716C19.4614 434.041 29.3971 438.157 39.7571 438.157H274.132C284.492 438.157 294.428 434.041 301.754 426.716C309.079 419.39 313.195 409.454 313.195 399.094V39.7193C313.195 29.3593 309.079 19.4236 301.754 12.0979C294.428 4.7723 284.492 0.656796 274.132 0.656796Z" fill="#00916E"/>
<path d="M141.319 0.65625H250.694C254.838 0.65625 258.812 2.30245 261.743 5.23271C264.673 8.16296 266.319 12.1372 266.319 16.2812C266.319 20.4253 264.673 24.3995 261.743 27.3298C258.812 30.26 254.838 31.9062 250.694 31.9062H141.319C137.175 31.9062 133.201 30.26 130.271 27.3298C127.34 24.3995 125.694 20.4253 125.694 16.2812C125.694 12.1372 127.34 8.16296 130.271 5.23271C133.201 2.30245 137.175 0.65625 141.319 0.65625Z" fill="#00A076"/>
<path d="M0.694092 180.344V149.094C0.694092 144.95 2.3403 140.975 5.27055 138.045C8.20081 135.115 12.1751 133.469 16.3191 133.469C20.4631 133.469 24.4374 135.115 27.3676 138.045C30.2979 140.975 31.9441 144.95 31.9441 149.094V180.344C31.9441 184.488 30.2979 188.462 27.3676 191.392C24.4374 194.323 20.4631 195.969 16.3191 195.969C12.1751 195.969 8.20081 194.323 5.27055 191.392C2.3403 188.462 0.694092 184.488 0.694092 180.344Z" fill="#00A076"/>
<path d="M0.694092 352.219V227.219C0.694092 223.075 2.3403 219.1 5.27055 216.17C8.20081 213.24 12.1751 211.594 16.3191 211.594C20.4631 211.594 24.4374 213.24 27.3676 216.17C30.2979 219.1 31.9441 223.075 31.9441 227.219V352.219C31.9441 356.363 30.2979 360.337 27.3676 363.267C24.4374 366.198 20.4631 367.844 16.3191 367.844C12.1751 367.844 8.20081 366.198 5.27055 363.267C2.3403 360.337 0.694092 356.363 0.694092 352.219Z" fill="#00A076"/>
<path d="M281.944 281.906V344.406C281.944 360.982 275.359 376.879 263.638 388.6C251.917 400.321 236.02 406.906 219.444 406.906H78.8191C74.6751 406.906 70.7008 408.552 67.7706 411.483C64.8403 414.413 63.1941 418.387 63.1941 422.531C63.1941 426.675 64.8403 430.65 67.7706 433.58C70.7008 436.51 74.6751 438.156 78.8191 438.156H274.132C284.492 438.156 294.427 434.041 301.753 426.715C309.079 419.389 313.194 409.454 313.194 399.094V281.906C313.194 277.762 311.548 273.788 308.618 270.858C305.687 267.927 301.713 266.281 297.569 266.281C293.425 266.281 289.451 267.927 286.521 270.858C283.59 273.788 281.944 277.762 281.944 281.906Z" fill="#008461"/>
<path d="M89.5993 0.654791C88.191 0.0166 86.6172 -0.160829 85.1022 0.147787C83.5872 0.456403 82.2082 1.23532 81.1618 2.37354L3.03681 80.4985C1.65292 81.5006 0.661728 82.9538 0.233928 84.608C-0.193873 86.2621 -0.0315092 88.0137 0.693062 89.561C1.31613 91.0906 2.40789 92.3832 3.81154 93.2535C5.21519 94.1238 6.85853 94.5268 8.50556 94.4048H55.3806C60.5103 94.4048 65.5899 93.3944 70.3291 91.4313C75.0684 89.4683 79.3746 86.5909 83.0019 82.9637C86.6292 79.3364 89.5065 75.0301 91.4696 70.2909C93.4327 65.5516 94.443 60.472 94.443 55.3423V8.46729C94.5651 6.82026 94.162 5.17692 93.2918 3.77327C92.4215 2.36962 91.1288 1.27786 89.5993 0.654791Z" fill="#008461"/>
<path d="M274.131 0.6553H86.6306C85.6547 0.422843 84.6378 0.422843 83.6619 0.6553C82.6869 0.988434 81.8221 1.58298 81.1619 2.37405L3.03689 80.4991C1.90742 81.2273 1.076 82.3359 0.693141 83.624C0.460685 84.6 0.460685 85.6169 0.693141 86.5928V399.093C0.693141 409.453 4.80864 419.389 12.1343 426.714C19.4599 434.04 29.3956 438.155 39.7556 438.155H274.131C284.491 438.155 294.426 434.04 301.752 426.714C309.078 419.389 313.193 409.453 313.193 399.093V39.7178C313.193 29.3578 309.078 19.4221 301.752 12.0964C294.426 4.7708 284.491 0.6553 274.131 0.6553ZM78.8181 27.3741V55.3428C78.8181 61.5588 76.3488 67.5202 71.9535 71.9156C67.5581 76.311 61.5966 78.7803 55.3806 78.7803H27.4119L78.8181 27.3741ZM297.568 399.093C297.568 405.309 295.099 411.27 290.703 415.666C286.308 420.061 280.347 422.53 274.131 422.53H39.7556C33.5396 422.53 27.5782 420.061 23.1828 415.666C18.7874 411.27 16.3181 405.309 16.3181 399.093V94.4053H55.3806C60.5104 94.4053 65.5899 93.3949 70.3292 91.4318C75.0685 89.4688 79.3747 86.5914 83.002 82.9642C86.6293 79.3369 89.5066 75.0306 91.4697 70.2914C93.4328 65.5521 94.4431 60.4726 94.4431 55.3428V16.2803H274.131C280.347 16.2803 286.308 18.7496 290.703 23.145C295.099 27.5404 297.568 33.5018 297.568 39.7178V399.093Z" fill="#3D405B"/>
<path d="M104.756 141.282C103.793 140.94 102.77 140.794 101.749 140.853C100.728 140.912 99.7297 141.175 98.8122 141.627C97.8946 142.078 97.0769 142.709 96.4071 143.482C95.7373 144.255 95.2291 145.154 94.9124 146.126L79.2874 194.251L63.6624 146.126C63.4328 145.046 62.977 144.027 62.3249 143.136C61.6728 142.246 60.8394 141.503 59.8795 140.958C58.9195 140.413 57.855 140.077 56.7559 139.973C55.6568 139.869 54.5482 139.999 53.5031 140.355C52.458 140.711 51.5002 141.284 50.6928 142.037C49.8854 142.79 49.2467 143.706 48.8189 144.723C48.391 145.741 48.1837 146.838 48.2106 147.941C48.2375 149.045 48.498 150.13 48.975 151.126L70.5375 219.407L47.5687 287.22C47.2263 288.183 47.0804 289.206 47.1395 290.227C47.1987 291.248 47.4618 292.246 47.9133 293.164C48.3648 294.081 48.9955 294.899 49.7683 295.569C50.541 296.239 51.4401 296.747 52.4125 297.064C53.2391 297.213 54.0858 297.213 54.9125 297.064C56.5427 297.075 58.1341 296.566 59.4549 295.611C60.7758 294.655 61.7572 293.303 62.2562 291.751L77.8812 243.626L93.5062 291.751C94.0052 293.303 94.9866 294.655 96.3075 295.611C97.6284 296.566 99.2197 297.075 100.85 297.064C101.677 297.213 102.523 297.213 103.35 297.064C104.322 296.747 105.221 296.239 105.994 295.569C106.767 294.899 107.398 294.081 107.849 293.164C108.301 292.246 108.564 291.248 108.623 290.227C108.682 289.206 108.536 288.183 108.194 287.22L87.0999 219.407L110.069 151.595C110.481 150.574 110.668 149.476 110.618 148.376C110.567 147.276 110.28 146.2 109.776 145.221C109.272 144.242 108.562 143.384 107.696 142.704C106.83 142.024 105.827 141.539 104.756 141.282Z" fill="#F8EDEB"/>
<path d="M180.382 281.906H141.319V149.094C141.319 147.022 140.496 145.035 139.031 143.569C137.566 142.104 135.579 141.281 133.507 141.281C131.435 141.281 129.447 142.104 127.982 143.569C126.517 145.035 125.694 147.022 125.694 149.094V289.719C125.694 291.791 126.517 293.778 127.982 295.243C129.447 296.708 131.435 297.531 133.507 297.531H180.382C182.454 297.531 184.441 296.708 185.906 295.243C187.371 293.778 188.194 291.791 188.194 289.719C188.194 287.647 187.371 285.66 185.906 284.194C184.441 282.729 182.454 281.906 180.382 281.906Z" fill="#F8EDEB"/>
<path d="M242.882 211.594H227.257C225.185 211.594 223.197 210.771 221.732 209.306C220.267 207.84 219.444 205.853 219.444 203.781V164.719C219.444 162.647 220.267 160.66 221.732 159.194C223.197 157.729 225.185 156.906 227.257 156.906H258.507C260.579 156.906 262.566 156.083 264.031 154.618C265.496 153.153 266.319 151.166 266.319 149.094C266.319 147.022 265.496 145.035 264.031 143.569C262.566 142.104 260.579 141.281 258.507 141.281H227.257C221.041 141.281 215.079 143.751 210.684 148.146C206.288 152.541 203.819 158.503 203.819 164.719V203.781C203.819 209.997 206.288 215.959 210.684 220.354C215.079 224.749 221.041 227.219 227.257 227.219H242.882C244.954 227.219 246.941 228.042 248.406 229.507C249.871 230.972 250.694 232.959 250.694 235.031V274.094C250.694 276.166 249.871 278.153 248.406 279.618C246.941 281.083 244.954 281.906 242.882 281.906H211.632C209.56 281.906 207.572 282.729 206.107 284.194C204.642 285.66 203.819 287.647 203.819 289.719C203.819 291.791 204.642 293.778 206.107 295.243C207.572 296.708 209.56 297.531 211.632 297.531H242.882C249.098 297.531 255.059 295.062 259.454 290.667C263.85 286.271 266.319 280.31 266.319 274.094V235.031C266.319 228.815 263.85 222.854 259.454 218.458C255.059 214.063 249.098 211.594 242.882 211.594Z" fill="#F8EDEB"/>
</svg>
